<svg width="53" height="32" viewBox="0 0 53 32" fill="none" xmlns="http://www.w3.org/2000/svg">
<path d="M50.0511 30.6087H2.74677C1.98156 30.6087 1.35547 29.9826 1.35547 29.2174V2.7826C1.35547 2.01738 1.98156 1.3913 2.74677 1.3913H50.0511C50.8163 1.3913 51.4424 2.01738 51.4424 2.7826V29.2174C51.4424 29.9826 50.8163 30.6087 50.0511 30.6087Z" fill="#0056A4"/>
<path d="M17.3726 9.86093C18.5552 9.86093 19.7378 9.86093 20.9378 9.86093C19.1639 13.9653 17.4074 18.0696 15.6335 22.174C14.4508 22.174 13.2682 22.174 12.0682 22.174C12.0508 22.1392 12.0508 22.1044 12.0335 22.0696C11.2161 19.1827 10.4161 16.2783 9.59868 13.3914C9.44215 12.8522 9.30302 12.3305 9.1465 11.7914C9.07694 11.5479 8.93781 11.3914 8.71172 11.2696C7.85954 10.8348 6.97259 10.5044 6.05085 10.2435C5.87694 10.1914 5.70302 10.1566 5.51172 10.1044C5.52911 10.0175 5.52911 9.94789 5.5465 9.86093C5.58128 9.86093 5.61607 9.86093 5.65085 9.86093C7.42476 9.86093 9.18128 9.86093 10.9552 9.86093C11.1639 9.86093 11.3726 9.89571 11.5813 9.94789C12.103 10.087 12.4161 10.4348 12.5378 10.9566C12.9204 12.7827 13.303 14.6088 13.6856 16.4348C13.8074 17.0088 13.9291 17.5827 14.0335 18.174C14.0335 18.2088 14.0508 18.2435 14.0682 18.2609C15.1813 15.4435 16.2769 12.6609 17.3726 9.86093Z" fill="white"/>
<path d="M35.7897 10.1392C35.6332 11.0261 35.4941 11.8957 35.3375 12.7826C35.3027 12.7652 35.268 12.7652 35.2506 12.7479C34.6767 12.4696 34.068 12.3131 33.4419 12.2261C32.9723 12.1739 32.5201 12.1566 32.0506 12.2087C31.7549 12.2435 31.4593 12.3131 31.181 12.4522C30.9897 12.5392 30.8332 12.6609 30.7114 12.8348C30.5201 13.1131 30.5201 13.4261 30.7288 13.687C30.8332 13.8435 30.9723 13.9652 31.1288 14.0522C31.3897 14.2087 31.6506 14.3652 31.9288 14.5044C32.2071 14.6609 32.5028 14.7826 32.781 14.9218C33.2854 15.1652 33.7723 15.4609 34.2071 15.8261C34.6071 16.1739 34.9375 16.5913 35.1288 17.0783C35.268 17.4609 35.3201 17.8609 35.3028 18.2783C35.2854 18.6435 35.2158 19.0087 35.0941 19.3566C34.9028 19.8957 34.5897 20.3652 34.1897 20.7652C33.7375 21.2174 33.1984 21.5305 32.6071 21.7739C32.0332 22.0174 31.4245 22.1566 30.7984 22.2435C30.1549 22.3305 29.4941 22.3652 28.8332 22.3131C28.0506 22.2609 27.2854 22.1566 26.5375 21.9652C26.2941 21.8957 26.0506 21.8087 25.7897 21.7218C25.7549 21.7044 25.7201 21.687 25.668 21.6696C25.8245 20.7652 25.981 19.8435 26.1375 18.9218C26.1897 18.9392 26.2245 18.9566 26.2593 18.9739C26.6419 19.1479 27.0419 19.3044 27.4593 19.4435C27.9114 19.5826 28.3636 19.687 28.8506 19.7218C29.1984 19.7392 29.5462 19.7566 29.8941 19.7566C30.3114 19.7566 30.7114 19.6696 31.0941 19.4783C31.268 19.3913 31.4071 19.287 31.5462 19.1652C31.8419 18.8522 31.9114 18.3305 31.5636 17.9479C31.4419 17.8087 31.3028 17.7044 31.1636 17.6C30.8332 17.3739 30.468 17.2 30.0854 17.0261C29.5636 16.7826 29.0593 16.5218 28.5897 16.1739C28.1723 15.8783 27.8071 15.5305 27.5288 15.1131C27.2158 14.6261 27.0767 14.1044 27.0941 13.5305C27.1462 12.487 27.5984 11.6348 28.381 10.9566C28.9723 10.4522 29.6506 10.1218 30.3984 9.89568C30.9723 9.72177 31.5636 9.61742 32.1549 9.58264C32.5027 9.56525 32.8332 9.54786 33.181 9.56525C34.0332 9.60003 34.8854 9.73916 35.7028 10.0348C35.7201 10.1218 35.7375 10.1218 35.7897 10.1392Z" fill="white"/>
<path d="M22.2958 9.75656C23.4088 9.75656 24.5218 9.75656 25.6349 9.75656L25.6523 9.77395C25.6523 9.77395 25.6523 9.77395 25.6523 9.79134C25.6523 9.80874 25.6523 9.82613 25.6523 9.84352C24.9566 13.9131 24.261 17.9826 23.5653 22.0522C23.5653 22.0696 23.5479 22.087 23.5479 22.1044C22.4349 22.1044 21.3218 22.1044 20.1914 22.1044C20.8871 17.9653 21.6001 13.8609 22.2958 9.75656Z" fill="white"/>
<path d="M47.1456 22.1218C46.2412 18.0348 45.3369 13.9479 44.4325 9.86093C44.3803 9.86093 44.3456 9.86093 44.3108 9.86093C43.5108 9.86093 42.7108 9.86093 41.8934 9.86093C41.7021 9.86093 41.5108 9.87832 41.3195 9.89571C41.0064 9.9305 40.7455 10.0522 40.5021 10.2609C40.2934 10.4522 40.1542 10.6957 40.0325 10.9566C39.0238 13.2348 38.0151 15.5131 37.0064 17.7914C36.3803 19.2174 35.7369 20.6435 35.1108 22.087C35.0934 22.1218 35.076 22.1566 35.0586 22.1914C36.2412 22.1914 37.4064 22.1914 38.5716 22.1914C38.8151 21.5827 39.0412 20.9566 39.2847 20.3479C39.3369 20.3479 39.389 20.3479 39.4238 20.3479C40.7629 20.3479 42.1195 20.3479 43.4586 20.3479C43.6325 20.3479 43.5977 20.3305 43.6325 20.487C43.7542 21.0088 43.8586 21.5479 43.9803 22.0696C43.9803 22.1044 43.9977 22.1392 44.0151 22.174C45.0412 22.174 46.0673 22.174 47.0934 22.174C47.1456 22.1566 47.1456 22.1392 47.1456 22.1218ZM42.7108 17.8088C42.6934 17.8088 42.676 17.8088 42.6586 17.8088C42.3282 17.8088 41.8586 17.8088 41.4412 17.8088C41.3716 17.8088 41.3195 17.8088 41.2499 17.8088C41.1977 17.8088 41.1282 17.8088 41.076 17.8088C41.0586 17.8088 41.0412 17.8088 41.0238 17.8088C41.0064 17.8088 41.0064 17.8088 40.989 17.8088C40.9542 17.8088 40.9369 17.8088 40.9021 17.8088C40.8673 17.8088 40.8325 17.8088 40.7977 17.8088C40.7108 17.8088 40.6412 17.8088 40.5716 17.8088H40.5542C40.4151 17.8088 40.3108 17.8088 40.2934 17.8088C40.2934 17.8088 40.2934 17.8088 40.2934 17.7914C40.2934 17.7566 40.3108 17.7392 40.3108 17.7044C40.8847 16.2088 41.476 14.7131 42.0499 13.2175L42.0673 13.2001C42.0673 13.2001 42.0673 13.2001 42.0847 13.2001C42.4151 14.7305 42.7456 16.2609 43.0934 17.7914C43.076 17.8088 42.9369 17.8088 42.7108 17.8088Z" fill="white"/>
</svg>
